<svg xmlns="http://www.w3.org/2000/svg" viewBox="0 0 1600 1000"><defs><linearGradient id="c" x1="0" y1="0" x2="1" y2="1"><stop stop-color="#0d2b38"/><stop offset="1" stop-color="#163f50"/></linearGradient></defs><rect width="1600" height="1000" fill="url(#c)"/><rect x="330" y="120" width="900" height="720" rx="42" fill="#e7ecee" stroke="#aebbc0" stroke-width="18"/><rect x="425" y="220" width="710" height="480" rx="20" fill="#d0dadd"/><g fill="#17313d"><rect x="470" y="265" width="130" height="150" rx="14"/><rect x="625" y="265" width="130" height="150" rx="14"/><rect x="780" y="265" width="130" height="150" rx="14"/><rect x="935" y="265" width="130" height="150" rx="14"/><rect x="470" y="445" width="130" height="150" rx="14"/><rect x="625" y="445" width="130" height="150" rx="14"/><rect x="780" y="445" width="130" height="150" rx="14"/><rect x="935" y="445" width="130" height="150" rx="14"/></g><g fill="#ffd43b"><rect x="500" y="300" width="70" height="18" rx="8"/><rect x="655" y="300" width="70" height="18" rx="8"/><rect x="810" y="300" width="70" height="18" rx="8"/><rect x="965" y="300" width="70" height="18" rx="8"/><rect x="500" y="480" width="70" height="18" rx="8"/><rect x="655" y="480" width="70" height="18" rx="8"/><rect x="810" y="480" width="70" height="18" rx="8"/><rect x="965" y="480" width="70" height="18" rx="8"/></g><path d="M1280 450l-110 170h95l-55 150 180-225h-105l65-95z" fill="#ffd43b"/></svg>