<svg xmlns="http://www.w3.org/2000/svg" viewBox="0 0 1600 1000"><defs><linearGradient id="a" x1="0" y1="0" x2="1" y2="1"><stop stop-color="#0a2430"/><stop offset="1" stop-color="#133846"/></linearGradient><radialGradient id="g"><stop stop-color="#ffd43b" stop-opacity=".9"/><stop offset="1" stop-color="#ffd43b" stop-opacity="0"/></radialGradient></defs><rect width="1600" height="1000" fill="url(#a)"/><path d="M250 0v250M800 0v230M1320 0v270" stroke="#8da1aa" stroke-width="12"/><g fill="#263e48" stroke="#5a727c" stroke-width="5"><rect x="120" y="235" width="260" height="130" rx="55"/><rect x="660" y="215" width="280" height="140" rx="55"/><rect x="1190" y="250" width="260" height="130" rx="55"/></g><g><circle cx="250" cy="350" r="190" fill="url(#g)" opacity=".4"/><circle cx="800" cy="340" r="210" fill="url(#g)" opacity=".42"/><circle cx="1320" cy="365" r="190" fill="url(#g)" opacity=".4"/></g><g fill="#ffd43b"><ellipse cx="250" cy="302" rx="78" ry="28"/><ellipse cx="800" cy="286" rx="84" ry="30"/><ellipse cx="1320" cy="318" rx="78" ry="28"/></g><path d="M0 760h1600v240H0z" fill="#0b1b24"/><path d="M120 800h1360" stroke="#24404b" stroke-width="7"/><rect x="980" y="620" width="390" height="110" rx="24" fill="#203944"/><rect x="1030" y="650" width="95" height="42" rx="10" fill="#ffd43b" opacity=".8"/></svg>